<svg width="120" height="120" viewBox="0 0 120 120" fill="none" xmlns="http://www.w3.org/2000/svg">
<circle cx="60" cy="60" r="55" fill="white" stroke="#060A26" stroke-width="10"/>
<path d="M50.235 22.9729C32.9953 27.5922 22.7453 45.4816 27.3952 62.8351C29.4826 70.6255 34.2363 77.0094 40.3716 81.2533L40.3899 81.2639L40.4045 81.2755C40.4045 81.2755 57.8041 92.9925 63.76 96.273C67.7476 98.4672 72.8122 97.1102 75.1684 93.2161C79.1786 86.5857 87.9013 68.541 87.9013 68.541L87.9056 68.5282L87.9135 68.5145C91.109 61.7703 92.0334 53.8651 89.9459 46.0746C85.296 28.7211 67.4746 18.3535 50.235 22.9729ZM56.1939 45.2118C70.4504 41.3917 65.1499 62.0498 67.983 56.1231C69.7074 62.5588 70.6467 46.3841 68.0081 51.9528C61.7374 38.8882 68.5185 54.3635 65.0194 60.1489C64.2078 61.4902 62.3768 63.9167 61.0033 63.1609C57.5012 66.6772 62.8969 62.6535 56.5534 63.1398L55.1808 63.5076C50.1165 60.0032 51.2819 63.3305 49.5579 56.8966C56.5534 63.1398 41.9373 49.0318 56.1939 45.2118ZM55.6933 43.3436C52.2438 44.2679 49.6829 46.4568 48.3695 49.0973C47.0561 51.7378 46.9085 54.7119 47.6322 57.4126C48.3558 60.1132 49.9707 62.6151 52.4284 64.2451C54.8861 65.8751 58.1983 66.4904 61.6478 65.5661C65.0973 64.6418 67.6581 62.4529 68.9715 59.8124C70.285 57.1719 70.4325 54.1978 69.7089 51.4971C68.9853 48.7965 67.3704 46.2946 64.9127 44.6646C62.455 43.0346 59.1428 42.4193 55.6933 43.3436ZM57.1819 48.8992C59.2516 48.3446 60.637 48.7036 61.7762 49.4592C62.9155 50.2148 63.7969 51.5099 64.1897 52.976C64.5825 54.4421 64.4668 56.0044 63.858 57.2284C63.2492 58.4524 62.2289 59.4559 60.1592 60.0105C58.0895 60.5651 56.7041 60.2061 55.5648 59.4505C54.4256 58.6949 53.5442 57.3998 53.1513 55.9337C52.7585 54.4676 52.8743 52.9053 53.4831 51.6813C54.0919 50.4573 55.1122 49.4538 57.1819 48.8992Z" fill="#060A26"/>
<ellipse cx="58.8008" cy="54.9408" rx="11.4141" ry="11.4533" transform="rotate(-15 58.8008 54.9408)" fill="white"/>
</svg>
