<svg width="180" height="180" viewBox="0 0 180 180" fill="none" xmlns="http://www.w3.org/2000/svg">
<circle cx="90" cy="90" r="90" fill="white"/>
<path d="M72.423 23.3511C41.3917 31.6659 22.9416 63.8667 31.3113 95.103C35.0688 109.126 43.6253 120.617 54.669 128.256L54.7018 128.275L54.7282 128.296C54.7282 128.296 86.0474 149.386 96.768 155.291C103.946 159.241 113.062 156.798 117.303 149.789C124.522 137.854 140.222 105.374 140.222 105.374L140.23 105.351L140.244 105.326C145.996 93.1865 147.66 78.9571 143.903 64.9343C135.533 33.698 103.454 15.0363 72.423 23.3511ZM83.149 63.3811C108.811 56.505 99.2698 93.6896 104.369 83.0215C107.473 94.6057 109.164 65.4913 104.415 75.5151C93.1273 51.9987 105.333 79.8542 99.035 90.268C97.5741 92.6823 94.2783 97.0499 91.806 95.6895C85.5022 102.019 95.2145 94.7762 83.7961 95.6516L81.3254 96.3136C72.2098 90.0057 74.3074 95.9948 71.2043 84.4137C83.7961 95.6516 57.4873 70.2571 83.149 63.3811ZM82.2479 60.0183C76.0389 61.6821 71.4293 65.6222 69.0652 70.3751C66.7011 75.128 66.4354 80.4814 67.7379 85.3426C69.0405 90.2037 71.9473 94.7071 76.3711 97.6411C80.795 100.575 86.757 101.683 92.9661 100.019C99.1752 98.3553 103.785 94.4151 106.149 89.6622C108.513 84.9093 108.779 79.5559 107.476 74.6948C106.174 69.8336 103.267 65.3302 98.8429 62.3962C94.4191 59.4621 88.457 58.3546 82.2479 60.0183ZM84.9275 70.0185C88.6529 69.0203 91.1466 69.6664 93.1973 71.0264C95.2479 72.3865 96.8344 74.7178 97.5415 77.3567C98.2486 79.9956 98.0403 82.8079 96.9444 85.011C95.8485 87.2142 94.012 89.0206 90.2865 90.0188C86.5611 91.017 84.0674 90.3709 82.0168 89.0109C79.9661 87.6508 78.3796 85.3195 77.6725 82.6806C76.9654 80.0417 77.1737 77.2295 78.2696 75.0263C79.3655 72.8231 81.202 71.0167 84.9275 70.0185Z" fill="#060A26"/>
<ellipse cx="87.8415" cy="80.8936" rx="20.5453" ry="20.6159" transform="rotate(-15 87.8415 80.8936)" fill="white"/>
</svg>
